<svg viewBox="0 0 1024 1024" xml:space="preserve" xmlns="http://www.w3.org/2000/svg"><path d="M983.766 312.727c-25.785-60.972-62.694-115.728-109.705-162.744-47.011-47.017-101.762-83.934-162.732-109.726C648.194 13.548 581.14.004 512 0c-69.104 0-136.155 13.54-199.289 40.243-60.969 25.787-115.721 62.699-162.735 109.71-47.014 47.011-83.929 101.761-109.72 162.728C13.548 375.814.004 442.865 0 511.97c-.004 69.109 13.533 136.165 40.234 199.304 25.785 60.973 62.696 115.728 109.707 162.743 47.011 47.018 101.762 83.935 162.732 109.727 63.136 26.708 130.19 40.253 199.323 40.257h.009c69.104 0 136.153-13.54 199.288-40.243 60.969-25.787 115.72-62.699 162.733-109.709 47.013-47.01 83.929-101.76 109.72-162.728 26.708-63.134 40.251-130.186 40.255-199.29.003-69.11-13.534-136.165-40.235-199.304zM512.004 976.328h-.03c-124.026-.007-240.627-48.313-328.323-136.019-87.694-87.705-135.986-204.31-135.979-328.336.015-256.016 208.312-464.3 464.356-464.3 124.026.007 240.626 48.312 328.32 136.017 87.695 87.706 135.986 204.311 135.979 328.337-.014 256.016-208.309 464.301-464.323 464.301z" fill="#ece7e2" class="fill-262626"></path><path d="M672.75 305.64V203.89c-3.736 0-7.473-.007-11.209.001-8.996.02-17.993-.022-26.99.001-10.972.028-21.942-.046-32.915.001-9.667.042-19.337-.097-29.003.003-14.592.151-28.443.868-42.438 5.375-13.493 4.346-26.158 11.955-36.948 21.081-6.248 5.284-12.031 10.943-17.269 17.234a99.91 99.91 0 0 0-5.942 8.14c-5.538 8.431-9.913 17.704-13.567 27.535a305.567 305.567 0 0 0-2.397 6.662c-5.634 16.324-5.82 34.143-5.82 51.297v85.92h-97v112h96v281h111v-283.5L659 537.999l13.583-110.125-113.833-.234v-85s-.25-36.25 30.5-36.75l83.5-.25z" fill="#ece7e2" class="fill-262626"></path></svg>